Coordinates
version=1
nRows=14
nColumns=40
inDegrees=yes

Units are S.I. units (second, meters, Newtons, ...)
If the header above contains a line with 'inDegrees', this indicates whether rotational values are in degrees (yes) or radians (no).

endheader
time	pelvis_tilt	pelvis_list	pelvis_rotation	pelvis_tx	pelvis_ty	pelvis_tz	hip_flexion_r	hip_adduction_r	hip_rotation_r	knee_angle_r	knee_angle_r_beta	ankle_angle_r	subtalar_angle_r	mtp_angle_r	hip_flexion_l	hip_adduction_l	hip_rotation_l	knee_angle_l	knee_angle_l_beta	ankle_angle_l	subtalar_angle_l	mtp_angle_l	lumbar_extension	lumbar_bending	lumbar_rotation	arm_flex_r	arm_add_r	arm_rot_r	elbow_flex_r	pro_sup_r	wrist_flex_r	wrist_dev_r	arm_flex_l	arm_add_l	arm_rot_l	elbow_flex_l	pro_sup_l	wrist_flex_l	wrist_dev_l
      4.00000000	     -9.22798404	      1.05904390	     -9.65475320	     -0.21366438	      1.31624264	     -0.89479203	     13.14518183	     -5.57475067	      0.57535225	      4.90722101	      0.08564716	    -36.97661613	      0.00000000	      0.00000000	     14.61878802	    -12.13080780	    -22.38816548	     15.61342468	      0.27250567	    -35.39233208	      0.00000000	      0.00000000	    -10.74830868	     -4.84393097	      4.45993442	    -16.16681816	    -38.13398040	     31.90004998	     87.92366627	     87.24757668	      0.00000000	      0.00000000	    -33.93309849	    -42.93203836	     18.31542029	     94.52070250	     87.28543478	      0.00000000	      0.00000000
      4.00500000	     -9.09197638	      1.03091617	     -9.27052157	     -0.21317232	      1.32476978	     -0.89612010	     12.91854048	     -5.76563472	     -0.82768962	      4.65003034	      0.08115834	    -36.11057297	      0.00000000	      0.00000000	     14.54189075	    -11.88128272	    -21.35270019	     15.17388781	      0.26483430	    -34.61351059	      0.00000000	      0.00000000	    -10.93590813	     -4.64816597	      4.35542127	    -16.19010050	    -38.32825352	     32.19216947	     88.16531524	     87.22125728	      0.00000000	      0.00000000	    -33.17706930	    -42.89300878	     19.20879413	     94.19515607	     87.26377944	      0.00000000	      0.00000000
      4.01000000	     -9.10833057	      0.97935353	     -9.36106513	     -0.21338842	      1.33298200	     -0.89637884	     12.92905605	     -5.73469951	     -1.41705796	      4.38731790	      0.07657314	    -35.43466654	      0.00000000	      0.00000000	     14.56828051	    -11.92757388	    -21.30697116	     14.81095318	      0.25849990	    -34.05891487	      0.00000000	      0.00000000	    -11.02485449	     -4.56014564	      4.61076715	    -16.15739886	    -38.37383005	     32.32087894	     88.34508439	     87.23191622	      0.00000000	      0.00000000	    -32.88433748	    -42.64283862	     19.34394507	     94.08805249	     87.25799217	      0.00000000	      0.00000000
      4.01500000	     -8.84983238	      0.88156747	     -8.77634886	     -0.21265852	      1.34113115	     -0.89793665	     12.50804767	     -5.92762103	     -3.12143324	      4.23511334	      0.07391667	    -34.23152981	      0.00000000	      0.00000000	     14.30289071	    -11.63632041	    -19.95411858	     14.15916060	      0.24712397	    -33.11060582	      0.00000000	      0.00000000	    -11.43072307	     -4.31232124	      4.19501510	    -16.30676428	    -38.51126316	     32.33362844	     88.66650691	     87.23450103	      0.00000000	      0.00000000	    -32.47935856	    -42.47482671	     19.75417877	     93.79373261	     87.24813164	      0.00000000	      0.00000000
      4.02000000	     -9.10966494	      0.95464080	     -9.28430609	     -0.21369808	      1.34832783	     -0.89742458	     13.14087108	     -5.89443193	     -3.22632337	      4.49790029	      0.07850317	    -33.31075553	      0.00000000	      0.00000000	     14.40149743	    -11.64531829	    -20.44458067	     13.32918991	      0.23263825	    -32.66889597	      0.00000000	      0.00000000	    -11.23123683	     -4.40218313	      4.84635339	    -16.32818169	    -38.51362951	     32.36020857	     88.87363360	     87.23744037	      0.00000000	      0.00000000	    -32.20553361	    -42.46083413	     19.90887310	     93.76749621	     87.23718522	      0.00000000	      0.00000000
      4.02500000	     -9.13358915	      0.89185399	     -9.18202092	     -0.21364521	      1.35561935	     -0.89807533	     13.15729703	     -5.92066636	     -4.29885611	      4.47245053	      0.07805899	    -32.32532963	      0.00000000	      0.00000000	     14.29062258	    -11.56191156	    -19.94562308	     12.57073121	      0.21940065	    -31.89363682	      0.00000000	      0.00000000	    -11.29118919	     -4.24172742	      5.29690301	    -17.27602774	    -38.31287588	     31.27370194	     89.20647073	     87.25178645	      0.00000000	      0.00000000	    -31.35275805	    -42.65122968	     20.68250524	     93.61948468	     87.23009801	      0.00000000	      0.00000000
      4.03000000	     -9.34760260	      0.86060190	     -9.31987185	     -0.21409676	      1.36232789	     -0.89808591	     13.39943235	     -5.86873201	     -4.71062718	      4.32280925	      0.07544725	    -31.83267067	      0.00000000	      0.00000000	     14.41663911	    -11.65537562	    -20.09230087	     12.06165466	      0.21051559	    -31.19823195	      0.00000000	      0.00000000	    -11.11657861	     -4.16235834	      5.51676612	    -17.29214780	    -38.27455720	     31.28025806	     89.29617317	     87.25590075	      0.00000000	      0.00000000	    -31.34863297	    -42.60074632	     20.57345204	     93.63231294	     87.22074433	      0.00000000	      0.00000000
      4.03500000	     -9.52470136	      0.85626265	     -9.30289802	     -0.21445942	      1.36885576	     -0.89842932	     13.73264721	     -5.92220006	     -5.31519865	      4.56921228	      0.07974780	    -30.97477600	      0.00000000	      0.00000000	     14.33511362	    -11.56655639	    -18.79372089	     11.33951305	      0.19791184	    -29.66337039	      0.00000000	      0.00000000	    -10.99742903	     -4.09190885	      5.58135359	    -17.45681066	    -38.22327284	     31.04051927	     89.41975918	     87.25462547	      0.00000000	      0.00000000	    -31.44200867	    -42.47301805	     20.25711815	     93.65121444	     87.21975644	      0.00000000	      0.00000000
      4.04000000	     -9.68709799	      0.73906559	     -9.27356019	     -0.21466216	      1.37500084	     -0.89869245	     13.85019001	     -5.84407491	     -5.69874332	      4.43886623	      0.07747283	    -30.62478563	      0.00000000	      0.00000000	     14.46705624	    -11.68462055	    -19.36230493	     10.74098634	      0.18746558	    -29.16111880	      0.00000000	      0.00000000	    -10.86247246	     -3.91137342	      5.59860129	    -17.54574186	    -38.21358848	     30.95035594	     89.43562275	     87.25458453	      0.00000000	      0.00000000	    -31.52441901	    -42.45407461	     20.13708653	     93.74499173	     87.22234312	      0.00000000	      0.00000000
      4.04500000	     -9.87916673	      0.83466042	     -9.14300351	     -0.21469657	      1.38078646	     -0.89936347	     14.02878201	     -6.04424059	     -6.23900706	      4.37842374	      0.07641791	    -30.22004916	      0.00000000	      0.00000000	     14.58155724	    -11.54329175	    -19.46605338	     10.18859945	      0.17782461	    -28.33837991	      0.00000000	      0.00000000	    -10.64283863	     -3.91554659	      5.50109527	    -17.71490197	    -38.16497236	     30.71874772	     89.47883795	     87.24748699	      0.00000000	      0.00000000	    -31.71116182	    -42.41008535	     19.91732847	     93.84328273	     87.22681832	      0.00000000	      0.00000000
      4.05000000	     -9.98687349	      0.82582796	     -9.24080818	     -0.21508303	      1.38643401	     -0.89939853	     14.25470166	     -6.07704766	     -6.38876691	      4.51731064	      0.07884194	    -29.99786678	      0.00000000	      0.00000000	     14.53395954	    -11.57376604	    -19.42620623	      9.64329801	      0.16830730	    -27.37316651	      0.00000000	      0.00000000	    -10.57321807	     -3.90359961	      5.60217673	    -17.89242226	    -38.07224070	     30.33315689	     89.57152200	     87.25733675	      0.00000000	      0.00000000	    -32.00506154	    -42.35311386	     19.39214845	     94.08147365	     87.23356616	      0.00000000	      0.00000000
      4.05500000	    -10.25548721	      1.01999345	     -9.03721737	     -0.21518459	      1.39156780	     -0.90012678	     14.54812935	     -6.39519960	     -6.61888739	      4.52172631	      0.07891901	    -29.69560975	      0.00000000	      0.00000000	     14.68592063	    -11.33865735	    -18.61545838	      9.23640720	      0.16120572	    -26.34452858	      0.00000000	      0.00000000	    -10.30163960	     -4.01725314	      5.36549257	    -18.19033487	    -37.85851394	     29.77042407	     89.57423826	     87.26109177	      0.00000000	      0.00000000	    -32.38200208	    -42.29951504	     18.93791928	     94.28835195	     87.26619121	      0.00000000	      0.00000000
      4.06000000	    -10.32947558	      0.97047509	     -8.87251988	     -0.21490456	      1.39677183	     -0.90053121	     14.52569102	     -6.45977036	     -6.84959884	      4.43148615	      0.07734402	    -29.63570503	      0.00000000	      0.00000000	     14.68381221	    -11.38775726	    -18.93782537	      8.86717794	      0.15476145	    -25.79694222	      0.00000000	      0.00000000	    -10.19567813	     -3.91076368	      5.11698511	    -18.26982700	    -37.81199131	     29.59453066	     89.55485899	     87.25770479	      0.00000000	      0.00000000	    -32.60008174	    -42.32226276	     18.85693953	     94.34142695	     87.27406528	      0.00000000	      0.00000000
      4.06500000	    -10.41620048	      1.00385643	     -8.85665938	     -0.21526809	      1.40172279	     -0.90053016	     14.64143129	     -6.55713131	     -6.78160187	      4.42627076	      0.07725300	    -29.67933207	      0.00000000	      0.00000000	     14.71461730	    -11.42221350	    -19.22058672	      8.62356523	      0.15050961	    -25.39736439	      0.00000000	      0.00000000	    -10.09777122	     -3.94796934	      5.05431771	    -18.28440393	    -37.74374930	     29.47347941	     89.53220246	     87.25650792	      0.00000000	      0.00000000	    -32.67804836	    -42.47234698	     18.67854588	     94.44726787	     87.27400042	      0.00000000	      0.00000000
